<svg id="Capa_1" enable-background="new 0 0 512 512" fill="white" height="80" viewBox="0 0 512 512" width="80" xmlns="http://www.w3.org/2000/svg"><g><path d="m140.753 342.677c-3.905-3.904-10.237-3.904-14.143 0l-77.438 77.438c-3.905 3.905-3.905 10.237 0 14.143 1.953 1.952 4.512 2.929 7.071 2.929s5.119-.977 7.071-2.929l77.438-77.438c3.907-3.905 3.907-10.237.001-14.143z"/><path d="m155.18 371.246-77.438 77.438c-3.905 3.905-3.905 10.237 0 14.143 1.953 1.952 4.512 2.929 7.071 2.929s5.119-.977 7.071-2.929l77.438-77.438c3.905-3.905 3.905-10.237 0-14.143-3.905-3.905-10.237-3.905-14.142 0z"/><path d="m509.071 59.635-56.707-56.707c-3.906-3.904-10.236-3.904-14.143 0l-195.216 195.216c-2.042 2.042-3.101 4.867-2.906 7.748l1.357 20.007-26.395 26.395-4.416-4.416c-12.784-12.783-33.585-12.783-46.371 0l-11.691 11.691c-7.28 7.28-9.965 15.08-12.124 21.347-1.866 5.42-3.34 9.7-7.355 13.715-4.015 4.016-8.295 5.489-13.715 7.355-6.267 2.158-14.066 4.844-21.346 12.123l-77.438 77.438c-13.287 13.288-20.605 31.017-20.605 49.923s7.318 36.637 20.605 49.924c13.288 13.288 31.018 20.606 49.924 20.606s36.636-7.317 49.923-20.605l77.438-77.438c7.28-7.28 9.965-15.079 12.123-21.346 1.866-5.419 3.34-9.7 7.355-13.715 4.015-4.016 8.295-5.489 13.715-7.355 6.267-2.158 14.066-4.844 21.345-12.123l11.692-11.691c12.784-12.784 12.784-33.586 0-46.37l-4.417-4.417 26.395-26.395 20.007 1.357c2.88.185 5.706-.863 7.748-2.906l195.218-195.218c3.905-3.905 3.905-10.237 0-14.143zm-259.092 273.948-11.692 11.691c-4.015 4.016-8.295 5.489-13.715 7.355-6.267 2.158-14.066 4.844-21.346 12.123-7.28 7.28-9.965 15.079-12.123 21.346-1.866 5.419-3.34 9.7-7.355 13.715l-77.438 77.438c-9.511 9.511-22.218 14.749-35.781 14.749-13.564 0-26.271-5.237-35.781-14.748-9.51-9.51-14.748-22.217-14.748-35.782 0-13.563 5.237-26.271 14.747-35.78l77.438-77.438c4.015-4.016 8.295-5.489 13.715-7.355 6.267-2.158 14.066-4.844 21.346-12.123 7.279-7.28 9.965-15.079 12.123-21.346 1.866-5.42 3.34-9.701 7.355-13.716l11.69-11.691c2.494-2.493 5.768-3.739 9.043-3.739s6.55 1.246 9.043 3.739l53.477 53.478c4.988 4.985 4.988 13.097.002 18.084zm52.947-81.945-20.007-1.357c-2.881-.185-5.706.863-7.748 2.906l-29.609 29.609-16.359-16.36 29.609-29.608c2.042-2.042 3.102-4.867 2.906-7.748l-1.357-20.007 154.43-154.429 42.564 42.564zm168.572-168.572-42.564-42.564 16.359-16.359 42.564 42.564z"/></g></svg>